<?xml version="1.0" encoding="UTF-8" standalone="no"?>
<!-- Created with Inkscape (http://www.inkscape.org/) -->

<svg
   xmlns:dc="http://purl.org/dc/elements/1.1/"
   xmlns:cc="http://creativecommons.org/ns#"
   xmlns:rdf="http://www.w3.org/1999/02/22-rdf-syntax-ns#"
   xmlns:svg="http://www.w3.org/2000/svg"
   xmlns="http://www.w3.org/2000/svg"
   xmlns:sodipodi="http://sodipodi.sourceforge.net/DTD/sodipodi-0.dtd"
   xmlns:inkscape="http://www.inkscape.org/namespaces/inkscape"
   width="185.05237mm"
   height="185.05237mm"
   viewBox="0 0 185.05237 185.05237"
   version="1.1"
   id="svg6195"
   inkscape:version="0.92.4 (5da689c313, 2019-01-14)"
   sodipodi:docname="avatar.svg"
   inkscape:export-filename="C:\Users\tocso\Pictures\ickymickyco\avatar.png"
   inkscape:export-xdpi="82.355064"
   inkscape:export-ydpi="82.355064">
  <defs
     id="defs6189" />
  <sodipodi:namedview
     id="base"
     pagecolor="#ffffff"
     bordercolor="#666666"
     borderopacity="1.0"
     inkscape:pageopacity="0.0"
     inkscape:pageshadow="2"
     inkscape:zoom="0.35"
     inkscape:cx="-327.152"
     inkscape:cy="91.168979"
     inkscape:document-units="mm"
     inkscape:current-layer="layer1"
     showgrid="false"
     fit-margin-top="0"
     fit-margin-left="0"
     fit-margin-right="0"
     fit-margin-bottom="0"
     inkscape:window-width="1680"
     inkscape:window-height="987"
     inkscape:window-x="-8"
     inkscape:window-y="-8"
     inkscape:window-maximized="1" />
  <metadata
     id="metadata6192">
    <rdf:RDF>
      <cc:Work
         rdf:about="">
        <dc:format>image/svg+xml</dc:format>
        <dc:type
           rdf:resource="http://purl.org/dc/dcmitype/StillImage" />
        <dc:title></dc:title>
      </cc:Work>
    </rdf:RDF>
  </metadata>
  <g
     inkscape:label="Layer 1"
     inkscape:groupmode="layer"
     id="layer1"
     transform="translate(-63.937071,12.097246)">
    <circle
       style="opacity:1;fill:#f6f2fb;fill-opacity:1;stroke:#ffffff;stroke-width:0.52307522;stroke-linejoin:bevel;stroke-miterlimit:4;stroke-dasharray:none;paint-order:normal"
       id="path818"
       cx="156.46326"
       cy="80.42894"
       r="92.264648" />
    <g
       id="g826"
       transform="translate(1.7198041,6.8884583)">
      <g
         id="flowRoot2236-6-2-1"
         style="font-style:normal;font-variant:normal;font-weight:normal;font-stretch:normal;font-size:40px;line-height:1.25;font-family:Satisfy;-inkscape-font-specification:Satisfy;letter-spacing:0px;word-spacing:0px;display:inline;fill:#170b28;fill-opacity:1;stroke:none"
         transform="matrix(1.154494,0,0,1.154494,-159.83283,-402.12187)"
         aria-label="I">
        <path
           inkscape:connector-curvature="0"
           id="path1809"
           style="font-style:normal;font-variant:normal;font-weight:normal;font-stretch:normal;font-family:'Gloria Hallelujah';-inkscape-font-specification:'Gloria Hallelujah';fill:#170b28"
           d="m 277.19922,424.1457 q 0,-2.07032 -0.50781,-4.49219 -0.50782,-2.42188 -1.09375,-4.96094 -0.58594,-2.53906 -1.13282,-5.03906 -0.54687,-2.53906 -0.58593,-4.76563 h -8.71094 q 0,-0.3125 0,-0.89843 0,-0.58594 0.11719,-1.17188 0.11718,-0.625 0.35156,-1.09375 0.23437,-0.50781 0.70312,-0.625 h 21.48438 q -0.0391,1.25 -0.50781,1.91406 -0.46875,0.66407 -1.25,1.01563 -0.74219,0.35156 -1.67969,0.46875 -0.9375,0.0781 -1.875,0.19531 -0.9375,0.11719 -1.83594,0.3125 -0.89844,0.15625 -1.5625,0.66406 -0.625,0.50782 -0.97656,1.40625 -0.3125,0.85938 -0.15625,2.34375 0,0.82032 0.11719,2.1875 0.11718,1.32813 0.39062,2.89063 0.27344,1.5625 0.70313,3.16406 0.42968,1.5625 1.05468,2.89063 0.66407,1.28906 1.48438,2.10937 0.85937,0.78125 1.99219,0.78125 0.78125,0.0781 1.99218,0.0391 1.25,-0.0781 2.5,-0.11718 1.25,-0.0391 2.34375,0.0391 1.13282,0.0781 1.64063,0.46875 0.50781,0.39062 0.23437,1.17187 -0.27343,0.74219 -1.71875,2.03125 -2.5,0.9375 -5.07812,1.28907 -2.53906,0.3125 -5.11719,0.35156 -2.57812,0 -5.15625,-0.0781 -2.57812,-0.11718 -5.11719,-0.11718 -1.44531,-1.75782 -1.71875,-2.69532 -0.27343,-0.9375 0.19532,-1.28906 0.50781,-0.39062 1.5625,-0.39062 1.09375,-0.0391 2.34375,0.0781 1.25,0.0781 2.5,0.15625 1.25,0.0391 2.07031,-0.23437 z" />
      </g>
      <g
         transform="matrix(-1,0,0,1,-38.656764,-238.98578)"
         style="display:inline"
         id="g2244-2-3-4">
        <path
           sodipodi:nodetypes="cccccccc"
           inkscape:connector-curvature="0"
           id="path2238-6-0-8"
           d="m -156.84042,338.84437 -102.6139,17.89296 h 135.22121 m 0,0 -71.47678,-123.80072 -65.79908,113.96773 65.79908,-79.20861 38.86947,71.14864"
           style="display:inline;fill:#5a2ca0;fill-opacity:1;stroke-width:0.26458332" />
        <path
           sodipodi:nodetypes="ccc"
           inkscape:connector-curvature="0"
           id="path2240-0-6-1"
           d="m -156.84042,338.84437 -102.61389,17.89296 h 135.2212"
           style="display:inline;fill:#9955ff;fill-opacity:1;stroke-width:0.26458332" />
        <path
           sodipodi:nodetypes="ccc"
           inkscape:connector-curvature="0"
           id="path2242-3-0-9"
           d="m -195.70989,232.93661 -65.7991,113.96772 65.7991,-79.2086"
           style="display:inline;fill:#9955ff;fill-opacity:1;stroke-width:0.26458332" />
      </g>
    </g>
  </g>
</svg>
