<?xml version="1.0" encoding="UTF-8" standalone="no"?>
<!-- Created with Inkscape (http://www.inkscape.org/) -->

<svg
   xmlns:dc="http://purl.org/dc/elements/1.1/"
   xmlns:cc="http://creativecommons.org/ns#"
   xmlns:rdf="http://www.w3.org/1999/02/22-rdf-syntax-ns#"
   xmlns:svg="http://www.w3.org/2000/svg"
   xmlns="http://www.w3.org/2000/svg"
   xmlns:sodipodi="http://sodipodi.sourceforge.net/DTD/sodipodi-0.dtd"
   xmlns:inkscape="http://www.inkscape.org/namespaces/inkscape"
   width="58mm"
   height="88mm"
   viewBox="0 0 58 88"
   version="1.1"
   id="svg8"
   inkscape:version="0.92.4 (5da689c313, 2019-01-14)"
   sodipodi:docname="business-card.svg"
   inkscape:export-filename="C:\Source\ickymicky.co.uk\svgs\business-card.png"
   inkscape:export-xdpi="455.4682"
   inkscape:export-ydpi="455.4682">
  <defs
     id="defs2" />
  <sodipodi:namedview
     id="base"
     pagecolor="#ffffff"
     bordercolor="#666666"
     borderopacity="1.0"
     inkscape:pageopacity="0.0"
     inkscape:pageshadow="2"
     inkscape:zoom="1.979899"
     inkscape:cx="77.574517"
     inkscape:cy="149.68968"
     inkscape:document-units="mm"
     inkscape:current-layer="layer1"
     showgrid="false"
     width="1e-05mm"
     height="84mm"
     inkscape:window-width="1680"
     inkscape:window-height="987"
     inkscape:window-x="-8"
     inkscape:window-y="-8"
     inkscape:window-maximized="1"
     inkscape:snap-others="true"
     inkscape:object-nodes="false"
     inkscape:snap-nodes="true"
     inkscape:snap-text-baseline="true"
     inkscape:snap-global="true"
     showguides="true"
     inkscape:guide-bbox="true"
     inkscape:snap-object-midpoints="false"
     inkscape:snap-bbox="true"
     inkscape:bbox-paths="true"
     inkscape:bbox-nodes="false">
    <sodipodi:guide
       inkscape:locked="false"
       orientation="0,1"
       position="0,86.5"
       id="guide873" />
    <sodipodi:guide
       inkscape:locked="false"
       orientation="1,0"
       position="56.5,0"
       id="guide875" />
    <sodipodi:guide
       inkscape:locked="false"
       orientation="0,1"
       position="0,1.5"
       id="guide877" />
    <sodipodi:guide
       inkscape:locked="false"
       orientation="1,0"
       position="1.5,0"
       id="guide879" />
    <sodipodi:guide
       inkscape:locked="false"
       id="guide949"
       orientation="0,219.2126"
       position="0,0" />
    <sodipodi:guide
       inkscape:locked="false"
       id="guide953"
       orientation="0,-219.2126"
       position="58,88" />
    <sodipodi:guide
       id="guide965"
       position="29.0,0"
       orientation="1,0"
       inkscape:locked="false" />
    <inkscape:grid
       type="xygrid"
       id="grid1005" />
    <sodipodi:guide
       position="10.156242,6.5481035"
       orientation="0,1"
       id="guide4726"
       inkscape:locked="false" />
  </sodipodi:namedview>
  <metadata
     id="metadata5">
    <rdf:RDF>
      <cc:Work
         rdf:about="">
        <dc:format>image/svg+xml</dc:format>
        <dc:type
           rdf:resource="http://purl.org/dc/dcmitype/StillImage" />
        <dc:title></dc:title>
      </cc:Work>
    </rdf:RDF>
  </metadata>
  <g
     inkscape:groupmode="layer"
     id="layer2"
     inkscape:label="back"
     sodipodi:insensitive="true">
    <rect
       style="opacity:1;fill:#f6f2fb;fill-opacity:1;stroke:none;stroke-width:1.99854636;stroke-linejoin:bevel;stroke-miterlimit:4;stroke-dasharray:none;paint-order:normal"
       id="rect812"
       width="58"
       height="88"
       x="0"
       y="0" />
  </g>
  <g
     inkscape:label="Layer 1"
     inkscape:groupmode="layer"
     id="layer1"
     transform="translate(0,-209)">
    <g
       transform="matrix(0.14344074,0,0,0.14344074,53.425192,209.30237)"
       id="g844">
      <g
         id="flowRoot2236-6-2-1"
         style="font-style:normal;font-variant:normal;font-weight:normal;font-stretch:normal;font-size:40px;line-height:1.25;font-family:Satisfy;-inkscape-font-specification:Satisfy;letter-spacing:0px;word-spacing:0px;display:inline;fill:#170b28;fill-opacity:1;stroke:none"
         transform="matrix(1.154494,0,0,1.154494,-487.16021,-281.33144)"
         aria-label="I">
        <path
           inkscape:connector-curvature="0"
           id="path1809"
           style="font-style:normal;font-variant:normal;font-weight:normal;font-stretch:normal;font-family:'Gloria Hallelujah';-inkscape-font-specification:'Gloria Hallelujah';fill:#170b28"
           d="m 277.19922,424.1457 q 0,-2.07032 -0.50781,-4.49219 -0.50782,-2.42188 -1.09375,-4.96094 -0.58594,-2.53906 -1.13282,-5.03906 -0.54687,-2.53906 -0.58593,-4.76563 h -8.71094 q 0,-0.3125 0,-0.89843 0,-0.58594 0.11719,-1.17188 0.11718,-0.625 0.35156,-1.09375 0.23437,-0.50781 0.70312,-0.625 h 21.48438 q -0.0391,1.25 -0.50781,1.91406 -0.46875,0.66407 -1.25,1.01563 -0.74219,0.35156 -1.67969,0.46875 -0.9375,0.0781 -1.875,0.19531 -0.9375,0.11719 -1.83594,0.3125 -0.89844,0.15625 -1.5625,0.66406 -0.625,0.50782 -0.97656,1.40625 -0.3125,0.85938 -0.15625,2.34375 0,0.82032 0.11719,2.1875 0.11718,1.32813 0.39062,2.89063 0.27344,1.5625 0.70313,3.16406 0.42968,1.5625 1.05468,2.89063 0.66407,1.28906 1.48438,2.10937 0.85937,0.78125 1.99219,0.78125 0.78125,0.0781 1.99218,0.0391 1.25,-0.0781 2.5,-0.11718 1.25,-0.0391 2.34375,0.0391 1.13282,0.0781 1.64063,0.46875 0.50781,0.39062 0.23437,1.17187 -0.27343,0.74219 -1.71875,2.03125 -2.5,0.9375 -5.07812,1.28907 -2.53906,0.3125 -5.11719,0.35156 -2.57812,0 -5.15625,-0.0781 -2.57812,-0.11718 -5.11719,-0.11718 -1.44531,-1.75782 -1.71875,-2.69532 -0.27343,-0.9375 0.19532,-1.28906 0.50781,-0.39062 1.5625,-0.39062 1.09375,-0.0391 2.34375,0.0781 1.25,0.0781 2.5,0.15625 1.25,0.0391 2.07031,-0.23437 z" />
      </g>
      <g
         transform="matrix(-1,0,0,1,-365.98414,-118.19535)"
         style="display:inline"
         id="g2244-2-3-4">
        <path
           sodipodi:nodetypes="cccccccc"
           inkscape:connector-curvature="0"
           id="path2238-6-0-8"
           d="m -156.84042,338.84437 -102.6139,17.89296 h 135.22121 m 0,0 -71.47678,-123.80072 -65.79908,113.96773 65.79908,-79.20861 38.86947,71.14864"
           style="display:inline;fill:#5a2ca0;fill-opacity:1;stroke-width:0.26458332" />
        <path
           sodipodi:nodetypes="ccc"
           inkscape:connector-curvature="0"
           id="path2240-0-6-1"
           d="m -156.84042,338.84437 -102.61389,17.89296 h 135.2212"
           style="display:inline;fill:#9955ff;fill-opacity:1;stroke-width:0.26458332" />
        <path
           sodipodi:nodetypes="ccc"
           inkscape:connector-curvature="0"
           id="path2242-3-0-9"
           d="m -195.70989,232.93661 -65.7991,113.96772 65.7991,-79.2086"
           style="display:inline;fill:#9955ff;fill-opacity:1;stroke-width:0.26458332" />
      </g>
    </g>
    <g
       aria-label="Ickymicky Co"
       transform="matrix(0.12167403,0,0,0.13599052,128.49573,231.59075)"
       style="font-style:normal;font-variant:normal;font-weight:normal;font-stretch:normal;font-size:40px;line-height:1.25;font-family:Satisfy;-inkscape-font-specification:Satisfy;letter-spacing:0px;word-spacing:0px;display:inline;fill:#170b28;fill-opacity:1;stroke:none"
       id="flowRoot2252-4-6-0">
      <path
         d="m -972.67156,147.17668 q 0,-2.76041 -0.67708,-5.98958 -0.67708,-3.22917 -1.45833,-6.61458 -0.78125,-3.38542 -1.51042,-6.71875 -0.72917,-3.38542 -0.78125,-6.35417 h -11.61458 q 0,-0.41667 0,-1.19792 0,-0.78125 0.15625,-1.5625 0.15625,-0.83333 0.46875,-1.45833 0.3125,-0.67708 0.9375,-0.83333 h 28.64583 q -0.0521,1.66666 -0.67708,2.55208 -0.625,0.88542 -1.66667,1.35417 -0.98958,0.46875 -2.23958,0.625 -1.25,0.10416 -2.5,0.26041 -1.25,0.15625 -2.44792,0.41667 -1.19792,0.20833 -2.08333,0.88542 -0.83334,0.67708 -1.30209,1.875 -0.41666,1.14583 -0.20833,3.125 0,1.09375 0.15625,2.91666 0.15625,1.77084 0.52083,3.85417 0.36459,2.08333 0.9375,4.21875 0.57292,2.08333 1.40625,3.85417 0.88542,1.71875 1.97917,2.8125 1.14583,1.04166 2.65625,1.04166 1.04167,0.10417 2.65625,0.0521 1.66667,-0.10417 3.33333,-0.15625 1.66667,-0.0521 3.125,0.0521 1.51042,0.10417 2.1875,0.625 0.67709,0.52083 0.3125,1.5625 -0.36458,0.98958 -2.29166,2.70833 -3.33334,1.25 -6.77084,1.71875 -3.38541,0.41667 -6.82291,0.46875 -3.4375,0 -6.875,-0.10416 -3.4375,-0.15625 -6.82292,-0.15625 -1.92708,-2.34375 -2.29167,-3.59375 -0.36458,-1.25 0.26042,-1.71875 0.67708,-0.52084 2.08333,-0.52084 1.45834,-0.0521 3.125,0.10417 1.66667,0.10417 3.33334,0.20833 1.66666,0.0521 2.76041,-0.3125 z"
         style="font-style:normal;font-variant:normal;font-weight:normal;font-stretch:normal;font-size:53.33333588px;font-family:'Gloria Hallelujah';-inkscape-font-specification:'Gloria Hallelujah';text-align:center;text-anchor:middle;fill:#170b28"
         id="path1778"
         inkscape:connector-curvature="0" />
      <path
         d="m -949.18197,138.73918 q 0,-2.1875 0.9375,-4.58333 0.98958,-2.39583 2.60417,-4.32292 1.61458,-1.97916 3.69791,-3.28125 2.13542,-1.30208 4.47917,-1.30208 1.19792,0 2.39583,0.41667 1.19792,0.41666 2.13542,1.19791 0.98958,0.78125 1.5625,1.875 0.625,1.09375 0.625,2.44792 -0.9375,0 -1.71875,-0.20833 -0.72917,-0.20834 -1.45833,-0.46875 -0.72917,-0.3125 -1.45834,-0.52084 -0.67708,-0.20833 -1.51041,-0.20833 -2.13542,0 -3.48959,1.09375 -1.30208,1.04167 -2.08333,2.65625 -0.78125,1.61458 -1.09375,3.48958 -0.26042,1.82292 -0.26042,3.4375 0,0.26042 0,0.98959 0.0521,0.72916 0.0521,1.5625 0.0521,0.78125 0.0521,1.51041 0.0521,0.72917 0.10417,0.98959 0.57291,1.25 1.09375,1.92708 0.57291,0.67708 1.19791,1.04167 0.625,0.3125 1.35417,0.41666 0.72917,0.0521 1.71875,0.0521 1.35417,0 2.34375,-0.41667 1.04167,-0.41667 1.92708,-0.98958 0.88542,-0.57292 1.66667,-1.25 0.78125,-0.72917 1.61458,-1.30209 0.88542,-0.625 1.875,-0.98958 1.04167,-0.41667 2.34375,-0.41667 0,2.55209 -0.9375,4.53125 -0.88541,1.97917 -2.55208,3.38542 -1.61458,1.40625 -3.85417,2.1875 -2.1875,0.72917 -4.79166,0.72917 -2.44792,0 -4.42709,-1.66667 -1.92708,-1.66667 -3.33333,-4.0625 -1.35417,-2.44792 -2.08334,-5.15625 -0.72916,-2.70833 -0.72916,-4.79167 z"
         style="font-style:normal;font-variant:normal;font-weight:normal;font-stretch:normal;font-size:53.33333588px;font-family:'Gloria Hallelujah';-inkscape-font-specification:'Gloria Hallelujah';text-align:center;text-anchor:middle;fill:#170b28"
         id="path1780"
         inkscape:connector-curvature="0" />
      <path
         d="m -913.4528,153.3746 q -0.83334,0.72917 -1.77084,-0.67708 -0.88541,-1.40625 -1.82291,-4.21875 -0.9375,-2.86459 -1.875,-6.82292 -0.88542,-3.95833 -1.71875,-8.38542 -0.83334,-4.42708 -1.61459,-8.95833 -0.72916,-4.58333 -1.30208,-8.59375 0,-0.72917 -0.0521,-1.45833 0,-0.78125 0.15625,-1.40625 0.20833,-0.67709 0.67708,-1.19792 0.52083,-0.52083 1.5625,-0.78125 0.10417,-0.0521 0.41667,0.10417 0.36458,0.10416 0.72916,0.3125 0.36459,0.15625 0.625,0.36458 0.3125,0.20833 0.41667,0.36458 -0.67708,9.73959 2.23958,18.95834 0.15625,-0.15625 0.83334,-1.04167 0.67708,-0.9375 1.71875,-2.13542 1.04166,-1.25 2.34375,-2.65625 1.35416,-1.40625 2.8125,-2.60416 1.45833,-1.19792 2.91666,-1.97917 1.45834,-0.83333 2.81251,-0.83333 0.78125,0 1.51041,0.36458 0.78125,0.36458 0.78125,1.40625 0,0.10417 -0.0521,0.3125 -0.0521,0.15625 -0.0521,0.26042 -0.83334,0.72916 -2.55209,2.23958 -1.66667,1.51042 -3.54167,3.38542 -1.875,1.875 -3.59375,3.90625 -1.71875,2.03125 -2.60416,3.85416 -0.15625,0.3125 -0.10417,0.57292 0.0521,0.20833 0.10417,0.52083 0.57291,0.20834 1.82291,0.625 1.25,0.41667 2.76042,0.98959 1.51042,0.52083 3.22917,1.14583 1.71875,0.57292 3.22917,1.14583 1.51041,0.57292 2.70833,1.04167 1.25,0.41667 1.875,0.625 0.72917,0.3125 1.19792,0.41667 0.46875,0.10416 0.72916,0.3125 0.26042,0.15625 0.36459,0.46875 0.10416,0.3125 0.10416,0.9375 0,1.51041 -0.72916,1.97916 -0.72917,0.46875 -2.08334,0.46875 -4.01041,-0.26041 -7.86458,-1.66666 -3.85417,-1.45834 -7.8125,-3.48959 -0.15625,0.98959 0.10416,2.29167 0.3125,1.30208 0.72917,2.60417 0.41667,1.30208 0.78125,2.55208 0.41667,1.25 0.46875,2.23958 0.10417,0.98959 -0.20833,1.5625 -0.3125,0.57292 -1.40625,0.57292 z"
         style="font-style:normal;font-variant:normal;font-weight:normal;font-stretch:normal;font-size:53.33333588px;font-family:'Gloria Hallelujah';-inkscape-font-specification:'Gloria Hallelujah';text-align:center;text-anchor:middle;fill:#170b28"
         id="path1782"
         inkscape:connector-curvature="0" />
      <path
         d="m -894.23406,127.48918 q 0,-0.46875 0,-0.9375 0.0521,-0.52083 0.20834,-0.9375 0.20833,-0.46875 0.52083,-0.67708 0.36458,-0.26042 1.04167,-0.26042 0.0521,0 0.10416,0 0.10417,0 0.20834,0 0.15625,0.0521 0.26041,0.0521 0.98959,1.35416 1.71875,3.48958 0.72917,2.08333 1.40625,4.47917 0.67709,2.34375 1.45834,4.79166 0.78125,2.39584 2.03125,4.32292 1.25,1.92708 3.07291,3.07292 1.82292,1.14583 4.53125,0.98958 1.19792,0 1.5625,-1.30208 0.36459,-1.30209 0.36459,-3.33334 0.0521,-2.03125 -0.10417,-4.47916 -0.10417,-2.44792 0,-4.63542 0.15625,-2.23958 0.78125,-3.90625 0.67708,-1.66667 2.29167,-2.23958 0.67708,1.35416 1.09375,4.27083 0.46875,2.86458 0.67708,6.66667 0.20833,3.75 0.20833,8.17708 0,4.375 -0.20833,8.75 -0.20833,4.32292 -0.625,8.33333 -0.41667,4.01042 -0.9375,7.03126 -0.52083,3.02083 -1.25,4.73958 -0.67708,1.77083 -1.45833,1.51042 -1.09375,-1.04167 -1.71875,-2.70834 -0.57292,-1.66666 -0.83334,-3.69791 -0.20833,-2.03125 -0.15625,-4.32292 0.0521,-2.23959 0.15625,-4.53125 0.15625,-2.29167 0.3125,-4.47917 0.20834,-2.1875 0.20834,-4.01042 -1.875,0.15625 -3.85417,-0.57291 -1.92708,-0.72917 -3.80208,-2.23959 -1.875,-1.5625 -3.59375,-3.75 -1.66667,-2.1875 -2.96875,-4.94791 -1.25,-2.76042 -1.97917,-5.9375 -0.72917,-3.22917 -0.72917,-6.77084 z"
         style="font-style:normal;font-variant:normal;font-weight:normal;font-stretch:normal;font-size:53.33333588px;font-family:'Gloria Hallelujah';-inkscape-font-specification:'Gloria Hallelujah';text-align:center;text-anchor:middle;fill:#170b28"
         id="path1784"
         inkscape:connector-curvature="0" />
      <path
         d="m -868.7653,132.54127 q 0,-1.30209 0.41666,-2.03125 0.46875,-0.72917 1.92709,-0.72917 0.15625,0 0.57291,0.0521 0.46875,0 0.57292,0 0.36458,1.61459 0.72917,3.54167 0.41666,1.875 0.9375,3.80208 0.52083,1.92709 1.14583,3.80209 0.67708,1.875 1.61458,3.38541 0.9375,-0.98958 1.35417,-2.34375 0.41667,-1.35416 0.625,-2.70833 0.20833,-1.40625 0.36458,-2.65625 0.20834,-1.30208 0.78125,-2.1875 0.57292,-0.9375 1.66667,-1.35417 1.14583,-0.41666 3.125,0 2.1875,0 3.48958,0.83334 1.30209,0.78125 2.23959,2.03125 0.98958,1.19791 1.875,2.60416 0.9375,1.35417 2.34375,2.44792 0.3125,-0.67708 0.78125,-1.66667 0.46875,-1.04166 1.14583,-2.13541 0.72917,-1.14584 1.51042,-2.23959 0.83333,-1.14583 1.71875,-2.03125 0.88542,-0.9375 1.82292,-1.51041 0.9375,-0.625 1.82291,-0.625 2.13542,0 3.69792,1.35416 1.5625,1.30209 2.65625,3.33334 1.14583,1.97916 1.875,4.47916 0.72917,2.44792 1.14583,4.73959 0.41667,2.29166 0.57292,4.21875 0.20833,1.875 0.20833,2.70833 0,0.67708 -0.3125,1.04167 -0.3125,0.36458 -0.78125,0.57291 -0.46875,0.15625 -1.04166,0.20834 -0.52084,0.0521 -0.98959,0.0521 -0.10416,0 -0.3125,0 -0.20833,-0.0521 -0.46875,-0.10417 -0.20833,-0.0521 -0.57291,-0.15625 l -3.38542,-15.57291 q 0,-0.15625 -0.41667,-0.57292 -0.41666,-0.46875 -0.625,-0.57292 -0.15625,0 -0.26041,-0.0521 -0.10417,0 -0.15625,0 -0.0521,-0.0521 -0.10417,-0.0521 -1.09375,0 -2.08333,0.88541 -0.9375,0.88542 -1.77084,2.23959 -0.83333,1.35416 -1.5625,3.02083 -0.72916,1.66667 -1.30208,3.33333 -0.57292,1.61459 -1.04167,3.02084 -0.41666,1.35416 -0.67708,2.08333 -0.20833,0.10417 -0.83333,0.20833 -0.625,0.0521 -0.83334,0.0521 -1.45833,0 -2.23958,-0.98959 -0.78125,-1.04166 -1.30208,-2.55208 -0.46875,-1.51042 -0.83334,-3.28125 -0.3125,-1.82292 -0.83333,-3.33333 -0.46875,-1.51042 -1.35417,-2.5 -0.83333,-1.04167 -2.39583,-1.04167 -0.57292,0 -1.09375,1.14583 -0.52084,1.14584 -0.9375,2.91667 -0.41667,1.71875 -0.78125,3.75 -0.36459,1.97917 -0.625,3.75 -0.20834,1.71875 -0.3125,2.91667 -0.10417,1.19791 -0.10417,1.19791 -0.10417,0.15625 -0.41667,0.36459 -0.3125,0.15625 -0.67708,0.36458 -0.3125,0.20833 -0.67708,0.3125 -0.3125,0.10417 -0.46875,0.10417 -1.45834,0 -2.8125,-1.30209 -1.35417,-1.35416 -2.5,-3.4375 -1.09375,-2.13541 -2.03125,-4.6875 -0.88542,-2.55208 -1.51042,-5 -0.625,-2.44791 -0.98958,-4.42708 -0.3125,-1.97917 -0.3125,-3.02083 z"
         style="font-style:normal;font-variant:normal;font-weight:normal;font-stretch:normal;font-size:53.33333588px;font-family:'Gloria Hallelujah';-inkscape-font-specification:'Gloria Hallelujah';text-align:center;text-anchor:middle;fill:#170b28"
         id="path1786"
         inkscape:connector-curvature="0" />
      <path
         d="m -819.7028,134.88502 q 0,-0.3125 0,-0.98959 0.0521,-0.72916 0.0521,-1.51041 0.0521,-0.78125 0.0521,-1.51042 0.0521,-0.72917 0.0521,-1.04167 0.57292,-0.83333 1.45834,-1.35416 0.9375,-0.52084 1.875,-0.83334 0.15625,2.8125 0.88541,5.98959 0.72917,3.17708 1.5625,6.40625 0.83334,3.17708 1.45834,6.30208 0.67708,3.125 0.67708,5.83333 0,2.34375 -2.39583,2.34375 -1.45834,0 -2.44792,-1.19791 -0.98958,-1.19792 -1.61458,-3.02084 -0.57292,-1.875 -0.9375,-4.11458 -0.36459,-2.29167 -0.52084,-4.47917 -0.10416,-2.1875 -0.15625,-4.01041 0,-1.82292 0,-2.8125 z m 0.72917,-19.53125 q 0.98958,0.41666 1.66667,1.35416 0.67708,0.9375 0.57291,1.71875 -0.0521,0.72917 -1.14583,1.04167 -1.09375,0.26042 -3.64583,-0.625 0,-1.40625 0.52083,-2.44792 0.57292,-1.04166 2.03125,-1.04166 z"
         style="font-style:normal;font-variant:normal;font-weight:normal;font-stretch:normal;font-size:53.33333588px;font-family:'Gloria Hallelujah';-inkscape-font-specification:'Gloria Hallelujah';text-align:center;text-anchor:middle;fill:#170b28"
         id="path1788"
         inkscape:connector-curvature="0" />
      <path
         d="m -810.64031,138.73918 q 0,-2.1875 0.9375,-4.58333 0.98959,-2.39583 2.60417,-4.32292 1.61458,-1.97916 3.69792,-3.28125 2.13541,-1.30208 4.47916,-1.30208 1.19792,0 2.39584,0.41667 1.19791,0.41666 2.13541,1.19791 0.98959,0.78125 1.5625,1.875 0.625,1.09375 0.625,2.44792 -0.9375,0 -1.71875,-0.20833 -0.72916,-0.20834 -1.45833,-0.46875 -0.72917,-0.3125 -1.45833,-0.52084 -0.67709,-0.20833 -1.51042,-0.20833 -2.13542,0 -3.48958,1.09375 -1.30209,1.04167 -2.08334,2.65625 -0.78125,1.61458 -1.09375,3.48958 -0.26041,1.82292 -0.26041,3.4375 0,0.26042 0,0.98959 0.0521,0.72916 0.0521,1.5625 0.0521,0.78125 0.0521,1.51041 0.0521,0.72917 0.10417,0.98959 0.57292,1.25 1.09375,1.92708 0.57292,0.67708 1.19792,1.04167 0.625,0.3125 1.35416,0.41666 0.72917,0.0521 1.71875,0.0521 1.35417,0 2.34375,-0.41667 1.04167,-0.41667 1.92709,-0.98958 0.88541,-0.57292 1.66666,-1.25 0.78125,-0.72917 1.61459,-1.30209 0.88541,-0.625 1.875,-0.98958 1.04166,-0.41667 2.34375,-0.41667 0,2.55209 -0.9375,4.53125 -0.88542,1.97917 -2.55209,3.38542 -1.61458,1.40625 -3.85416,2.1875 -2.1875,0.72917 -4.79167,0.72917 -2.44792,0 -4.42708,-1.66667 -1.92709,-1.66667 -3.33334,-4.0625 -1.35416,-2.44792 -2.08333,-5.15625 -0.72917,-2.70833 -0.72917,-4.79167 z"
         style="font-style:normal;font-variant:normal;font-weight:normal;font-stretch:normal;font-size:53.33333588px;font-family:'Gloria Hallelujah';-inkscape-font-specification:'Gloria Hallelujah';text-align:center;text-anchor:middle;fill:#170b28"
         id="path1790"
         inkscape:connector-curvature="0" />
      <path
         d="m -774.91113,153.3746 q -0.83333,0.72917 -1.77083,-0.67708 -0.88542,-1.40625 -1.82292,-4.21875 -0.9375,-2.86459 -1.875,-6.82292 -0.88542,-3.95833 -1.71875,-8.38542 -0.83333,-4.42708 -1.61458,-8.95833 -0.72917,-4.58333 -1.30209,-8.59375 0,-0.72917 -0.0521,-1.45833 0,-0.78125 0.15625,-1.40625 0.20833,-0.67709 0.67708,-1.19792 0.52084,-0.52083 1.5625,-0.78125 0.10417,-0.0521 0.41667,0.10417 0.36458,0.10416 0.72917,0.3125 0.36458,0.15625 0.625,0.36458 0.3125,0.20833 0.41666,0.36458 -0.67708,9.73959 2.23959,18.95834 0.15625,-0.15625 0.83333,-1.04167 0.67708,-0.9375 1.71875,-2.13542 1.04167,-1.25 2.34375,-2.65625 1.35417,-1.40625 2.8125,-2.60416 1.45833,-1.19792 2.91667,-1.97917 1.45833,-0.83333 2.8125,-0.83333 0.78125,0 1.51041,0.36458 0.78125,0.36458 0.78125,1.40625 0,0.10417 -0.0521,0.3125 -0.0521,0.15625 -0.0521,0.26042 -0.83334,0.72916 -2.55209,2.23958 -1.66666,1.51042 -3.54166,3.38542 -1.875,1.875 -3.59375,3.90625 -1.71875,2.03125 -2.60417,3.85416 -0.15625,0.3125 -0.10417,0.57292 0.0521,0.20833 0.10417,0.52083 0.57292,0.20834 1.82292,0.625 1.25,0.41667 2.76041,0.98959 1.51042,0.52083 3.22917,1.14583 1.71875,0.57292 3.22917,1.14583 1.51041,0.57292 2.70833,1.04167 1.25,0.41667 1.875,0.625 0.72917,0.3125 1.19792,0.41667 0.46875,0.10416 0.72916,0.3125 0.26042,0.15625 0.36459,0.46875 0.10416,0.3125 0.10416,0.9375 0,1.51041 -0.72916,1.97916 -0.72917,0.46875 -2.08334,0.46875 -4.01041,-0.26041 -7.86458,-1.66666 -3.85417,-1.45834 -7.8125,-3.48959 -0.15625,0.98959 0.10417,2.29167 0.3125,1.30208 0.72916,2.60417 0.41667,1.30208 0.78125,2.55208 0.41667,1.25 0.46875,2.23958 0.10417,0.98959 -0.20833,1.5625 -0.3125,0.57292 -1.40625,0.57292 z"
         style="font-style:normal;font-variant:normal;font-weight:normal;font-stretch:normal;font-size:53.33333588px;font-family:'Gloria Hallelujah';-inkscape-font-specification:'Gloria Hallelujah';text-align:center;text-anchor:middle;fill:#170b28"
         id="path1792"
         inkscape:connector-curvature="0" />
      <path
         d="m -755.69239,127.48918 q 0,-0.46875 0,-0.9375 0.0521,-0.52083 0.20834,-0.9375 0.20833,-0.46875 0.52083,-0.67708 0.36458,-0.26042 1.04167,-0.26042 0.0521,0 0.10416,0 0.10417,0 0.20834,0 0.15625,0.0521 0.26041,0.0521 0.98959,1.35416 1.71875,3.48958 0.72917,2.08333 1.40625,4.47917 0.67709,2.34375 1.45834,4.79166 0.78125,2.39584 2.03125,4.32292 1.25,1.92708 3.07291,3.07292 1.82292,1.14583 4.53125,0.98958 1.19792,0 1.5625,-1.30208 0.36459,-1.30209 0.36459,-3.33334 0.0521,-2.03125 -0.10417,-4.47916 -0.10417,-2.44792 0,-4.63542 0.15625,-2.23958 0.78125,-3.90625 0.67709,-1.66667 2.29167,-2.23958 0.67708,1.35416 1.09375,4.27083 0.46875,2.86458 0.67708,6.66667 0.20834,3.75 0.20834,8.17708 0,4.375 -0.20834,8.75 -0.20833,4.32292 -0.625,8.33333 -0.41666,4.01042 -0.9375,7.03126 -0.52083,3.02083 -1.25,4.73958 -0.67708,1.77083 -1.45833,1.51042 -1.09375,-1.04167 -1.71875,-2.70834 -0.57292,-1.66666 -0.83334,-3.69791 -0.20833,-2.03125 -0.15625,-4.32292 0.0521,-2.23959 0.15625,-4.53125 0.15625,-2.29167 0.3125,-4.47917 0.20834,-2.1875 0.20834,-4.01042 -1.875,0.15625 -3.85417,-0.57291 -1.92708,-0.72917 -3.80208,-2.23959 -1.875,-1.5625 -3.59375,-3.75 -1.66667,-2.1875 -2.96875,-4.94791 -1.25,-2.76042 -1.97917,-5.9375 -0.72917,-3.22917 -0.72917,-6.77084 z"
         style="font-style:normal;font-variant:normal;font-weight:normal;font-stretch:normal;font-size:53.33333588px;font-family:'Gloria Hallelujah';-inkscape-font-specification:'Gloria Hallelujah';text-align:center;text-anchor:middle;fill:#170b28"
         id="path1794"
         inkscape:connector-curvature="0" />
      <path
         d="m -705.0153,136.55168 q 0,-1.77083 0.46875,-3.85416 0.52084,-2.08334 1.40625,-4.16667 0.88542,-2.13542 2.13542,-4.11458 1.25,-2.03125 2.8125,-3.54167 1.5625,-1.5625 3.38542,-2.44792 1.82291,-0.9375 3.85416,-0.9375 1.66667,0 3.125,0.46875 1.45834,0.41667 2.5,1.30209 1.04167,0.88541 1.61459,2.23958 0.625,1.30208 0.625,3.125 -1.14584,0 -1.875,-0.57292 -0.67709,-0.625 -1.30209,-1.35416 -0.57291,-0.72917 -1.30208,-1.30209 -0.67708,-0.57291 -1.77083,-0.57291 -1.61459,0 -3.125,0.83333 -1.45834,0.83333 -2.76042,2.23958 -1.25,1.40625 -2.23958,3.17709 -0.9375,1.77083 -1.66667,3.59375 -0.67708,1.77083 -1.09375,3.48958 -0.36458,1.71875 -0.36458,2.96875 0,2.70833 0.78125,5.10417 0.83333,2.34375 2.34375,4.11458 1.51041,1.71875 3.75,2.70833 2.23958,0.98959 5.10416,0.98959 1.82292,0 3.4375,-0.52084 1.66667,-0.57291 3.17709,-1.19791 1.5625,-0.67709 3.07291,-1.25 1.51042,-0.57292 3.02084,-0.57292 0.20833,0 0.57291,0.0521 0.41667,0 0.72917,0.10417 0.36458,0.10417 0.625,0.36458 0.26042,0.20834 0.26042,0.67709 0,1.875 -1.45834,3.17708 -1.40625,1.30208 -3.38541,2.13542 -1.97917,0.78125 -4.11459,1.14583 -2.13541,0.36458 -3.48958,0.36458 -3.95833,0 -7.39583,-1.25 -3.4375,-1.30208 -5.98959,-3.64583 -2.55208,-2.34375 -4.01041,-5.625 -1.45834,-3.33333 -1.45834,-7.44792 z"
         style="font-style:normal;font-variant:normal;font-weight:normal;font-stretch:normal;font-size:53.33333588px;font-family:'Gloria Hallelujah';-inkscape-font-specification:'Gloria Hallelujah';text-align:center;text-anchor:middle;fill:#170b28"
         id="path1796"
         inkscape:connector-curvature="0" />
      <path
         d="m -671.47364,143.84335 q 0,-3.22917 1.51042,-5.98958 1.51041,-2.8125 3.95833,-4.79167 2.5,-2.03125 5.57292,-3.17708 3.125,-1.14584 6.30208,-1.14584 1.77083,0 3.125,1.14584 1.40625,1.14583 2.34375,2.8125 0.9375,1.61458 1.40625,3.4375 0.52083,1.82291 0.52083,3.17708 0,2.91667 -1.40625,5.67708 -1.40625,2.70834 -3.64583,4.84375 -2.23958,2.08334 -5.05208,3.38542 -2.8125,1.30208 -5.625,1.30208 -2.5,0 -4.21875,-0.83333 -1.71875,-0.88542 -2.76042,-2.29167 -1.04167,-1.45833 -1.5625,-3.38541 -0.46875,-1.97917 -0.46875,-4.16667 z m 4.42708,0.52083 q 0,1.35417 0.20834,2.39584 0.26041,0.98958 0.83333,1.71875 0.625,0.72916 1.61458,1.14583 0.98959,0.36458 2.44792,0.36458 1.92708,0 3.85417,-1.04166 1.92708,-1.09375 3.4375,-2.70834 1.5625,-1.66666 2.5,-3.64583 0.9375,-1.97917 0.9375,-3.85417 0,-0.83333 -0.15625,-1.82291 -0.15625,-0.98959 -0.52084,-1.82292 -0.36458,-0.83333 -1.04166,-1.40625 -0.67709,-0.57292 -1.71875,-0.57292 -0.9375,0 -2.23959,0.625 -1.25,0.625 -2.65625,1.61459 -1.35416,0.98958 -2.70833,2.23958 -1.30208,1.25 -2.39583,2.5 -1.09375,1.25 -1.77084,2.39583 -0.625,1.14584 -0.625,1.875 z"
         style="font-style:normal;font-variant:normal;font-weight:normal;font-stretch:normal;font-size:53.33333588px;font-family:'Gloria Hallelujah';-inkscape-font-specification:'Gloria Hallelujah';text-align:center;text-anchor:middle;fill:#170b28"
         id="path1798"
         inkscape:connector-curvature="0" />
    </g>
    <text
       xml:space="preserve"
       style="font-style:normal;font-weight:normal;font-size:2.99448609px;line-height:1.25;font-family:sans-serif;letter-spacing:0px;word-spacing:0px;fill:#000000;fill-opacity:1;stroke:none;stroke-width:0.07486214"
       x="12.422128"
       y="270.57825"
       id="text939"><tspan
         sodipodi:role="line"
         id="tspan937"
         x="12.422128"
         y="270.57825"
         style="font-style:normal;font-variant:normal;font-weight:normal;font-stretch:normal;font-family:'Gloria Hallelujah';-inkscape-font-specification:'Gloria Hallelujah';stroke-width:0.07486214">Handcrafted with love</tspan></text>
    <text
       xml:space="preserve"
       style="font-style:normal;font-weight:normal;font-size:2.99448633px;line-height:1.25;font-family:sans-serif;letter-spacing:0px;word-spacing:0px;fill:#000000;fill-opacity:1;stroke:none;stroke-width:0.07486214"
       x="19.774555"
       y="290.53601"
       id="text939-9"><tspan
         sodipodi:role="line"
         id="tspan937-8"
         x="19.774555"
         y="290.53601"
         style="font-style:italic;font-variant:normal;font-weight:300;font-stretch:normal;font-family:Calibri;-inkscape-font-specification:'Calibri Light Italic';stroke-width:0.07486214">ickymicky.co.uk</tspan></text>
  </g>
</svg>
